<svg xmlns="http://www.w3.org/2000/svg" viewBox="0 0 60 40">
  <rect width="60" height="40" fill="#B22234"/>
  <rect y="0" width="60" height="3.08" fill="#fff"/>
  <rect y="6.15" width="60" height="3.08" fill="#fff"/>
  <rect y="12.31" width="60" height="3.08" fill="#fff"/>
  <rect y="18.46" width="60" height="3.08" fill="#fff"/>
  <rect y="24.62" width="60" height="3.08" fill="#fff"/>
  <rect y="30.77" width="60" height="3.08" fill="#fff"/>
  <rect y="36.92" width="60" height="3.08" fill="#fff"/>
  <rect width="24" height="18.46" fill="#3C3B6E"/>
  <g fill="#fff" font-size="3">
    <circle cx="4" cy="3.2" r="1"/>
    <circle cx="10" cy="3.2" r="1"/>
    <circle cx="16" cy="3.2" r="1"/>
    <circle cx="22" cy="3.2" r="1"/>
    <circle cx="7" cy="6.2" r="1"/>
    <circle cx="13" cy="6.2" r="1"/>
    <circle cx="19" cy="6.2" r="1"/>
    <circle cx="4" cy="9.2" r="1"/>
    <circle cx="10" cy="9.2" r="1"/>
    <circle cx="16" cy="9.2" r="1"/>
    <circle cx="22" cy="9.2" r="1"/>
    <circle cx="7" cy="12.2" r="1"/>
    <circle cx="13" cy="12.2" r="1"/>
    <circle cx="19" cy="12.2" r="1"/>
    <circle cx="4" cy="15.2" r="1"/>
    <circle cx="10" cy="15.2" r="1"/>
    <circle cx="16" cy="15.2" r="1"/>
    <circle cx="22" cy="15.2" r="1"/>
  </g>
</svg>
